# xmcd CD database file
#
# Track frame offsets:
#	150
#	16850
#	33219
#	49167
#	68217
#	81943
#	100533
#	115655
#	133018
#	148984
#	164458
#
# Disc length: 2455 seconds
#
# Revision: 1
# Processed by: cddbd v1.5.2PL0 Copyright (c) Steve Scherf et al.
# Submitted via: CDex 1.79
#
DISCID=8e09950b
DTITLE=Heartland - I Loved Her First
DYEAR=2006
DGENRE=Country
TTITLE0=Boys Like Us
TTITLE1=Play Hurt
TTITLE2=You
TTITLE3=Built To Last
TTITLE4=No Getting Over Me
TTITLE5=Let's Get Dirty
TTITLE6=Too Country
TTITLE7=Freebird In A Firebird
TTITLE8=I Loved Her First
TTITLE9=Mississippi Mud
TTITLE10=Judge A Man By The Woman
EXTD=YEAR: 2006
EXTT0=
EXTT1=
EXTT2=
EXTT3=
EXTT4=
EXTT5=
EXTT6=
EXTT7=
EXTT8=
EXTT9=
EXTT10=
PLAYORDER=
